<?xml version="1.0" standalone="no"?>
<!DOCTYPE svg PUBLIC "-//W3C//DTD SVG 20010904//EN"
 "http://www.w3.org/TR/2001/REC-SVG-20010904/DTD/svg10.dtd">
<svg version="1.0" xmlns="http://www.w3.org/2000/svg"
 width="2000.000000pt" height="1500.000000pt" viewBox="0 0 2000.000000 1500.000000"
 preserveAspectRatio="xMidYMid meet">
<metadata>
Created by potrace 1.16, written by Peter Selinger 2001-2019
</metadata>
<g transform="translate(0.000000,1500.000000) scale(0.100000,-0.100000)"
fill="#000000" stroke="none">
<path d="M5648 8448 c-48 -36 -48 -29 -48 -945 0 -823 1 -860 20 -900 13 -30
27 -44 46 -49 33 -9 53 3 79 47 19 33 20 55 23 859 2 454 0 848 -3 877 -11 92
-69 147 -117 111z"/>
<path d="M10395 8450 c-185 -21 -329 -84 -440 -194 -110 -108 -155 -216 -155
-368 0 -210 126 -365 359 -442 42 -14 194 -52 337 -85 144 -33 285 -69 313
-82 62 -26 128 -96 137 -146 27 -142 -48 -252 -206 -301 -78 -24 -320 -24
-410 1 -146 40 -303 149 -385 267 l-29 41 -102 -102 -103 -103 19 -26 c33 -47
134 -141 194 -182 288 -197 737 -232 1046 -80 88 43 191 140 232 218 102 191
68 441 -76 570 -96 87 -184 119 -561 203 -242 54 -313 77 -373 120 -78 57
-105 175 -61 271 27 60 53 87 119 120 147 74 385 67 557 -17 56 -28 173 -132
224 -201 l24 -33 100 94 100 94 -44 57 c-112 145 -286 252 -471 289 -96 20
-255 28 -345 17z"/>
<path d="M6220 7506 l0 -926 145 0 145 0 0 370 0 370 203 0 202 0 235 -370
235 -370 168 0 c92 0 167 3 167 6 0 3 -112 179 -250 390 -137 212 -250 387
-250 389 0 2 17 9 38 16 129 41 252 140 302 242 76 155 77 354 3 507 -39 80
-144 180 -235 223 -145 69 -154 70 -655 74 l-453 4 0 -925z m896 651 c28 -9
69 -30 91 -46 119 -86 138 -329 36 -442 -78 -87 -137 -99 -473 -99 l-260 0 0
298 c0 164 3 302 8 306 4 4 129 6 277 3 213 -3 281 -8 321 -20z"/>
<path d="M8100 7505 l0 -925 690 0 690 0 0 130 0 130 -540 0 -540 0 0 275 0
275 405 0 405 0 0 125 0 125 -405 0 -405 0 0 265 0 265 520 0 520 0 0 130 0
130 -670 0 -670 0 0 -925z"/>
<path d="M11652 7773 c4 -644 4 -660 26 -738 80 -289 281 -444 616 -475 367
-34 663 91 779 330 80 164 87 235 87 958 l0 582 -149 0 -150 0 -3 -632 c-4
-580 -5 -638 -22 -688 -59 -179 -161 -265 -345 -292 -97 -14 -216 -2 -304 31
-111 43 -200 162 -226 306 -7 38 -11 270 -11 667 l0 608 -150 0 -151 0 3 -657z"/>
<path d="M13670 7505 l0 -925 140 0 140 0 -1 538 c0 295 -6 650 -12 789 -7
139 -9 249 -6 245 4 -4 132 -359 285 -790 l278 -783 124 3 124 3 281 788 c154
433 282 785 284 783 2 -2 -1 -97 -7 -212 -5 -115 -10 -469 -10 -786 l0 -578
135 0 135 0 0 925 0 925 -217 -2 -217 -3 -183 -530 c-101 -291 -214 -630 -250
-753 -37 -122 -70 -219 -74 -215 -4 5 -33 96 -64 203 -31 107 -142 444 -248
748 l-192 552 -222 0 -223 0 0 -925z"/>
<path d="M15873 8423 c2 -5 151 -263 331 -574 l326 -566 0 -351 0 -352 145 0
145 0 0 352 0 351 328 565 c180 311 329 569 330 574 2 5 -69 7 -163 6 l-166
-3 -168 -305 c-92 -168 -198 -363 -235 -433 -37 -71 -69 -127 -71 -125 -2 2
-33 59 -70 128 -37 69 -144 263 -237 433 l-170 307 -165 0 c-90 0 -162 -3
-160 -7z"/>
</g>
</svg>
